<?xml version="1.0" encoding="UTF-8"?><svg width="20px" id="Ebene_2" xmlns="http://www.w3.org/2000/svg" viewBox="0 0 22.99 22.98"><defs><style>.cls-1{fill:#fff;}</style></defs><g id="Ebene_1-2"><g><path class="cls-1" d="M22.37,.62c-.41-.41-.91-.62-1.5-.62H5.33c-.59,0-1.09,.21-1.5,.62-.41,.41-.62,.91-.62,1.5v15.54c0,.59,.21,1.09,.62,1.5,.41,.41,.91,.62,1.5,.62h15.54c.59,0,1.09-.21,1.5-.62,.41-.41,.62-.91,.62-1.5V2.12c0-.59-.21-1.09-.62-1.5Zm-2.16,10.62c-.31,1.7-1.14,3.11-2.47,4.23s-2.88,1.68-4.64,1.68c-1.09,0-2.12-.22-3.07-.67-.96-.45-1.77-1.07-2.46-1.87l.12,2.4v.03c0,.1-.03,.18-.1,.25s-.15,.1-.25,.1h-1.37c-.23,0-.35-.12-.35-.35v-5.85c0-.1,.03-.18,.1-.25s.15-.1,.25-.1h5.85c.1,0,.18,.03,.25,.1s.1,.15,.1,.25v1.37c0,.1-.03,.18-.1,.25s-.15,.1-.25,.1l-2.98-.15c.47,.7,1.08,1.26,1.83,1.67,.75,.41,1.56,.61,2.44,.61,1.19,0,2.25-.37,3.19-1.11,.94-.74,1.54-1.69,1.81-2.84,.04-.18,.16-.26,.35-.26h1.43c.1,0,.18,.03,.25,.1,.07,.07,.1,.15,.1,.25,0,.02,0,.04-.03,.06Zm.38-2.63c0,.1-.03,.18-.1,.25-.07,.07-.15,.1-.25,.1h-5.85c-.1,0-.18-.03-.25-.1s-.1-.15-.1-.25v-1.37c0-.1,.03-.18,.1-.25s.15-.1,.25-.1l2.98,.15c-.47-.7-1.08-1.26-1.83-1.67-.75-.41-1.56-.61-2.44-.61-1.21,0-2.28,.37-3.2,1.11-.93,.74-1.53,1.69-1.8,2.84-.04,.18-.16,.26-.35,.26h-1.43c-.1,0-.18-.03-.25-.1s-.1-.15-.1-.25v-.06c.33-1.7,1.17-3.11,2.5-4.23,1.34-1.12,2.88-1.68,4.64-1.68,1.09,0,2.12,.22,3.07,.67s1.77,1.07,2.46,1.87l-.12-2.4v-.03c0-.1,.03-.18,.1-.25s.15-.1,.25-.1h1.37c.23,0,.35,.12,.35,.35v5.85Z"/><path class="cls-1" d="M.62,3.82c.39-.39,.85-.58,1.39-.61,0,.04,0,.07,0,.11v15.54c0,.59,.21,1.09,.62,1.5,.41,.41,.91,.62,1.5,.62h15.54s.07,0,.11,0c-.02,.54-.22,1.01-.61,1.39-.41,.41-.91,.62-1.5,.62H2.12c-.59,0-1.09-.21-1.5-.62C.21,21.95,0,21.45,0,20.87V5.33c0-.59,.21-1.09,.62-1.5Z"/></g></g></svg>
